<svg width="162" height="35" viewBox="0 0 162 35" fill="none" xmlns="http://www.w3.org/2000/svg">
<path d="M9.4695 25.9434C6.80566 25.9434 4.75655 25.1796 3.32218 23.6521C1.90643 22.1059 1.19856 19.7308 1.19856 16.5268C1.19856 13.3227 1.90643 10.9476 3.32218 9.40148C4.75655 7.85534 6.80566 7.08226 9.4695 7.08226H20.6744V10.9383H10.2239C9.57195 10.9383 9.01311 11.0221 8.5474 11.1898C8.10032 11.3574 7.72776 11.5996 7.42971 11.9163C7.13165 12.2143 6.8988 12.5962 6.73115 13.0619C6.56349 13.5276 6.45172 14.0492 6.39584 14.6267H20.5626V18.2592H6.3679C6.42378 18.8739 6.52624 19.4235 6.67526 19.9078C6.84292 20.3735 7.07577 20.774 7.37382 21.1093C7.67187 21.426 8.05375 21.6682 8.51946 21.8358C8.98516 22.0035 9.55333 22.0873 10.2239 22.0873H20.6744V25.9434H9.4695ZM34.5572 25.9434L28.7172 19.9358H27.7951V25.9434H22.7375V6.46753H27.7951V17.3092H28.7172L34.5851 11.7766H40.6207L33.4953 18.343L41.1236 25.9434H34.5572ZM77.9621 25.9434V22.4785H88.5243C89.0087 22.4785 89.3533 22.3947 89.5582 22.227C89.7818 22.0594 89.8935 21.7799 89.8935 21.3888C89.8935 21.0162 89.7818 20.7554 89.5582 20.6064C89.3533 20.4573 89.0087 20.3828 88.5243 20.3828H82.7403C80.9706 20.3828 79.6666 20.0009 78.8283 19.2372C77.9901 18.4734 77.5709 17.3837 77.5709 15.9679C77.5709 14.5336 77.9901 13.4811 78.8283 12.8104C79.6666 12.1212 80.9706 11.7766 82.7403 11.7766H94.1966V15.1855H83.8021C83.2805 15.1855 82.9079 15.2507 82.6844 15.3811C82.4795 15.5115 82.377 15.791 82.377 16.2194C82.377 16.6479 82.4795 16.9366 82.6844 17.0856C82.9079 17.216 83.2805 17.2812 83.8021 17.2812H90.0332C90.9274 17.2812 91.6725 17.3837 92.2686 17.5886C92.8834 17.7935 93.377 18.0916 93.7496 18.4827C94.1221 18.8553 94.3829 19.321 94.532 19.8799C94.6996 20.4387 94.7834 21.0721 94.7834 21.7799C94.7834 22.4878 94.6996 23.1026 94.532 23.6241C94.3643 24.1457 94.0849 24.5835 93.6937 24.9374C93.3025 25.2727 92.7716 25.5242 92.101 25.6919C91.449 25.8595 90.6386 25.9434 89.67 25.9434H77.9621ZM96.2773 25.9434V7.08226H101.475V21.7799H114.747V25.9434H96.2773ZM116.143 25.9434V12.056H121.2V25.9434H116.143ZM116.143 10.1839V6.46753H121.2V10.1839H116.143ZM129.297 25.9434L122.368 11.7766H127.844L131.086 18.8739C131.477 19.7681 131.803 20.5319 132.064 21.1652C132.343 21.7986 132.52 22.2457 132.595 22.5064H132.762C132.855 22.2457 133.032 21.7986 133.293 21.1652C133.573 20.5319 133.917 19.7681 134.327 18.8739L137.708 11.7766H142.989L135.948 25.9434H129.297ZM149.757 25.9434C148.509 25.9434 147.428 25.8223 146.515 25.5801C145.621 25.3379 144.876 24.9374 144.28 24.3786C143.703 23.8197 143.265 23.0932 142.967 22.1991C142.687 21.2863 142.548 20.1686 142.548 18.846C142.548 17.542 142.669 16.443 142.911 15.5488C143.172 14.636 143.581 13.9002 144.14 13.3414C144.718 12.7825 145.463 12.382 146.376 12.1398C147.307 11.8977 148.434 11.7766 149.757 11.7766H155.569C157.357 11.7766 158.68 12.1585 159.537 12.9222C160.393 13.6673 160.822 14.7292 160.822 16.1076C160.822 17.4861 160.468 18.4921 159.76 19.1254C159.052 19.7588 158.102 20.0755 156.91 20.0755H147.465C147.577 20.9882 147.857 21.6216 148.304 21.9755C148.751 22.3109 149.496 22.4785 150.539 22.4785H160.095V25.9434H149.757ZM150.539 14.7944C149.477 14.7944 148.723 14.9806 148.276 15.3532C147.829 15.7071 147.559 16.3126 147.465 17.1695H154.703C155.187 17.1695 155.532 17.0763 155.736 16.89C155.96 16.7038 156.072 16.4057 156.072 15.9959C156.072 15.6047 155.96 15.3066 155.736 15.1017C155.532 14.8968 155.187 14.7944 154.703 14.7944H150.539Z" fill="#E2E2E2"/>
<path fill-rule="evenodd" clip-rule="evenodd" d="M78.8668 8.47427C86.3095 2.47257 74.9673 -0.214659 57.653 10.3139C58.2992 9.70542 59.4205 8.89984 60.8031 8.03134C59.8478 7.94103 58.9195 7.98524 57.9585 8.21272C56.7942 8.48829 55.6951 8.98227 54.7269 9.66508C53.7587 10.3479 52.9414 11.2055 52.324 12.1865C51.7065 13.1675 51.3016 14.2517 51.1335 15.3742C50.9654 16.4967 51.0375 17.6344 51.3455 18.7192C51.6536 19.804 52.1912 20.8134 52.9263 21.6872C53.532 22.4073 54.5584 23.2136 55.4855 23.7678C58.6084 22.5658 62.3382 20.592 66.412 17.6732C64.7685 19.4726 59.2037 23.2575 55.1159 25.0405C49.4366 27.5177 40.7618 27.3812 47.8764 20.7C44.3038 24.055 46.237 26.004 51.3349 25.0047C50.8114 24.6162 50.3922 24.1736 49.8222 23.4959C48.8376 22.3256 48.1175 20.9734 47.7049 19.5204C47.2922 18.0675 47.1956 16.5436 47.4208 15.04C47.646 13.5365 48.1884 12.0842 49.0155 10.7702C49.8425 9.4562 50.9372 8.30751 52.234 7.39292C53.5308 6.47834 55.0031 5.81667 56.5625 5.44756C58.122 5.07845 59.7366 5.00949 61.3097 5.2448C62.5149 5.42509 63.6668 5.88831 64.1396 6.09509C66.4291 4.86067 68.9239 3.69236 71.0527 2.94906C77.6849 0.63334 87.4806 1.52819 78.8668 8.47427Z" fill="#FF6600"/>
<path fill-rule="evenodd" clip-rule="evenodd" d="M66.205 9.70126C62.617 11.0547 58.3033 13.318 53.582 16.7007C55.4453 14.6605 61.7546 10.3693 66.3892 8.3478C72.8281 5.53927 82.6635 5.69399 74.5971 13.2689C78.8691 9.25719 76.1974 7.01854 69.6959 8.60448C70.0055 8.93323 71.0594 10.0812 71.5671 10.9968C72.4827 12.6479 72.6973 14.0423 72.8021 15.6707C72.9069 17.2991 72.6943 18.9328 72.177 20.4738C71.6597 22.0148 70.8484 23.4315 69.7916 24.639C68.7348 25.8465 67.4543 26.82 66.0268 27.5011C64.5993 28.1823 63.0542 28.5571 61.484 28.6031C59.9138 28.6491 58.3508 28.3653 56.8886 27.7688L56.0978 27.3893C54.4901 28.038 52.8561 28.6079 51.4205 28.982C45.497 30.5255 37.0523 29.0575 45.0235 23.6322C38.1361 28.3199 47.7975 31.4537 63.5777 23.5304C62.9188 24.0571 61.7525 24.7476 60.3318 25.4703L60.669 25.5308C61.8413 25.4964 62.9948 25.2166 64.0606 24.7081C65.1263 24.1996 66.0823 23.4728 66.8712 22.5713C67.6602 21.6698 68.2659 20.6121 68.6521 19.4616C69.0383 18.3111 69.1971 17.0915 69.1188 15.8758C69.0406 14.66 68.8666 13.6265 68.1968 12.3863C67.6731 11.4166 66.876 10.2034 66.205 9.70126Z" fill="#E2E2E2"/>
</svg>
